<?xml version="1.0" encoding="UTF-8" standalone="no"?>
<!-- Created with Inkscape (http://www.inkscape.org/) -->

<svg
   width="210mm"
   height="161.69186mm"
   viewBox="0 0 210 161.69186"
   version="1.1"
   id="svg1"
   inkscape:version="1.3 (1:1.3+202307231459+0e150ed6c4)"
   sodipodi:docname="post1.svg"
   xmlns:inkscape="http://www.inkscape.org/namespaces/inkscape"
   xmlns:sodipodi="http://sodipodi.sourceforge.net/DTD/sodipodi-0.dtd"
   xmlns:xlink="http://www.w3.org/1999/xlink"
   xmlns="http://www.w3.org/2000/svg"
   xmlns:svg="http://www.w3.org/2000/svg">
  <sodipodi:namedview
     id="namedview1"
     pagecolor="#ffffff"
     bordercolor="#999999"
     borderopacity="1"
     inkscape:showpageshadow="0"
     inkscape:pageopacity="0"
     inkscape:pagecheckerboard="0"
     inkscape:deskcolor="#d1d1d1"
     inkscape:document-units="mm"
     inkscape:zoom="0.6148099"
     inkscape:cx="445.66621"
     inkscape:cy="253.73697"
     inkscape:window-width="1366"
     inkscape:window-height="706"
     inkscape:window-x="0"
     inkscape:window-y="0"
     inkscape:window-maximized="1"
     inkscape:current-layer="layer1" />
  <defs
     id="defs1">
    <rect
       x="-229.84112"
       y="332.48971"
       width="165.5555"
       height="220.36792"
       id="rect21" />
    <pattern
       inkscape:collect="always"
       xlink:href="#pattern20"
       preserveAspectRatio="xMidYMid"
       id="pattern21"
       patternTransform="matrix(-0.22931496,0.41369513,-0.41369513,-0.22931496,112.53606,360.60472)"
       x="87"
       y="0" />
    <pattern
       patternUnits="userSpaceOnUse"
       width="178.20394"
       height="130.16871"
       patternTransform="translate(112.75398,360.60472)"
       preserveAspectRatio="xMidYMid"
       id="pattern20"
       inkscape:label="pattern20">
      <path
         id="circle20"
         style="fill:#ffffff;stroke-width:0.450047"
         d="m 29.47666,11.258933 a 1.2042626,1.2042626 0 0 1 -1.204259,1.204259 1.2042626,1.2042626 0 0 1 -1.204264,-1.204259 1.2042626,1.2042626 0 0 1 1.204264,-1.204263 1.2042626,1.2042626 0 0 1 1.204259,1.204263 z M 139.61822,128.96448 a 1.2042626,1.2042626 0 0 1 -1.20426,1.20423 1.2042626,1.2042626 0 0 1 -1.20427,-1.20423 1.2042626,1.2042626 0 0 1 1.20427,-1.20427 1.2042626,1.2042626 0 0 1 1.20426,1.20427 z m 38.13848,-25.70536 a 1.2042626,1.2042626 0 0 1 -1.20427,1.20423 1.2042626,1.2042626 0 0 1 -1.20426,-1.20423 1.2042626,1.2042626 0 0 1 1.20426,-1.20427 1.2042626,1.2042626 0 0 1 1.20427,1.20427 z M 136.13094,69.662672 a 1.2042626,1.2042626 0 0 1 -1.20426,1.204271 1.2042626,1.2042626 0 0 1 -1.20427,-1.204271 1.2042626,1.2042626 0 0 1 1.20427,-1.204233 1.2042626,1.2042626 0 0 1 1.20426,1.204233 z M 87.055302,114.27055 a 3.1243774,3.1243774 0 0 1 -3.124377,3.12438 3.1243774,3.1243774 0 0 1 -3.124376,-3.12438 3.1243774,3.1243774 0 0 1 3.124376,-3.12439 3.1243774,3.1243774 0 0 1 3.124377,3.12439 z M 70.570261,3.1243767 A 3.1243774,3.1243774 0 0 1 67.445881,6.2487534 3.1243774,3.1243774 0 0 1 64.321504,3.1243767 3.1243774,3.1243774 0 0 1 67.445881,0 3.1243774,3.1243774 0 0 1 70.570261,3.1243767 Z M 63.90836,76.549992 a 1.2042626,1.2042626 0 0 1 -1.204259,1.204271 1.2042626,1.2042626 0 0 1 -1.204264,-1.204271 1.2042626,1.2042626 0 0 1 1.204264,-1.204271 1.2042626,1.2042626 0 0 1 1.204259,1.204271 z m 18.338045,10.924271 a 1.2042626,1.2042626 0 0 1 -1.204263,1.204271 1.2042626,1.2042626 0 0 1 -1.204264,-1.204271 1.2042626,1.2042626 0 0 1 1.204264,-1.204271 1.2042626,1.2042626 0 0 1 1.204263,1.204271 z M 173.20037,48.956152 a 1.2042626,1.2042626 0 0 1 -1.20426,1.204271 1.2042626,1.2042626 0 0 1 -1.20427,-1.204271 1.2042626,1.2042626 0 0 1 1.20427,-1.204233 1.2042626,1.2042626 0 0 1 1.20426,1.204233 z M 155.7535,10.800707 a 5.587982,5.587982 0 0 1 -5.58798,5.587982 5.587982,5.587982 0 0 1 -5.58798,-5.587982 5.587982,5.587982 0 0 1 5.58798,-5.5879826 5.587982,5.587982 0 0 1 5.58798,5.5879826 z m -42.79702,88.307735 a 1.2042626,1.2042626 0 0 1 -1.20426,1.204268 1.2042626,1.2042626 0 0 1 -1.20427,-1.204268 1.2042626,1.2042626 0 0 1 1.20427,-1.204271 1.2042626,1.2042626 0 0 1 1.20426,1.204271 z m 1.12678,-74.739439 a 1.2042626,1.2042626 0 0 1 -1.20427,1.204271 1.2042626,1.2042626 0 0 1 -1.20426,-1.204271 1.2042626,1.2042626 0 0 1 1.20426,-1.204271 1.2042626,1.2042626 0 0 1 1.20427,1.204271 z m -18.941156,46.88296 a 1.2042626,1.2042626 0 0 1 -1.204263,1.204271 1.2042626,1.2042626 0 0 1 -1.204264,-1.204271 1.2042626,1.2042626 0 0 1 1.204264,-1.20427 1.2042626,1.2042626 0 0 1 1.204263,1.20427 z m 5.315146,-20.698922 a 3.1243774,3.1243774 0 0 1 -3.124373,3.124384 3.1243774,3.1243774 0 0 1 -3.124377,-3.124384 3.1243774,3.1243774 0 0 1 3.124377,-3.124385 3.1243774,3.1243774 0 0 1 3.124373,3.124385 z M 6.2487534,32.483951 A 3.1243774,3.1243774 0 0 1 3.1243767,35.608335 3.1243774,3.1243774 0 0 1 0,32.483951 3.1243774,3.1243774 0 0 1 3.1243767,29.359567 3.1243774,3.1243774 0 0 1 6.2487534,32.483951 Z M 51.088399,95.883976 a 1.2042626,1.2042626 0 0 1 -1.204263,1.204233 1.2042626,1.2042626 0 0 1 -1.204263,-1.204233 1.2042626,1.2042626 0 0 1 1.204263,-1.204271 1.2042626,1.2042626 0 0 1 1.204263,1.204271 z m 31.158006,-8.409713 a 1.2042626,1.2042626 0 0 1 -1.204263,1.204271 1.2042626,1.2042626 0 0 1 -1.204264,-1.204271 1.2042626,1.2042626 0 0 1 1.204264,-1.204271 1.2042626,1.2042626 0 0 1 1.204263,1.204271 z M 33.274023,68.027535 a 1.2042626,1.2042626 0 0 1 -1.204263,1.204271 1.2042626,1.2042626 0 0 1 -1.20426,-1.204271 1.2042626,1.2042626 0 0 1 1.20426,-1.204271 1.2042626,1.2042626 0 0 1 1.204263,1.204271 z m 6.048352,39.030085 a 5.587982,5.587982 0 0 1 -5.587983,5.58796 5.587982,5.587982 0 0 1 -5.587982,-5.58796 5.587982,5.587982 0 0 1 5.587982,-5.58799 5.587982,5.587982 0 0 1 5.587983,5.58799 z m 14.664442,-54.247257 -1.516558,-11.313524 -9.262262,-5.342438 11.313506,-1.516573 5.342476,-9.262261 1.516558,11.313486 9.262261,5.342514 -11.313505,1.516535 z m 89.177073,61.995097 2.45788,-24.239204 -25.13384,-10.800831 24.23921,2.457864 10.80083,-25.13382 -2.45787,24.239206 25.13384,10.800832 -24.23921,-2.457903 z" />
    </pattern>
  </defs>
  <g
     inkscape:label="Layer 1"
     inkscape:groupmode="layer"
     id="layer1"
     transform="translate(4.5000002e-6,-76.391495)">
    <path
       id="rect1"
       style="fill:#1a1a1a;stroke-width:0.552527"
       d="M -4.5e-6,76.391492 H 210 V 238.08336 H -4.5e-6 Z" />
    <rect
       style="display:inline;opacity:0.414437;mix-blend-mode:lighten;fill:url(#pattern21);stroke:none;stroke-width:1.20988"
       width="210"
       height="161.69186"
       x="-0.21792319"
       y="76.391495"
       id="rect20"
       sodipodi:insensitive="true" />
    <path
       id="path20"
       style="display:inline;fill:#000000;stroke-width:0.263123"
       d="m 86.431837,-41.48968 a 0.7040784,0.7040784 0 0 1 -0.70408,0.70407 0.7040784,0.7040784 0 0 1 -0.70408,-0.70407 0.7040784,0.7040784 0 0 1 0.70408,-0.70408 0.7040784,0.7040784 0 0 1 0.70408,0.70408 z m 64.394843,68.81717 a 0.7040784,0.7040784 0 0 1 -0.70408,0.70406 0.7040784,0.7040784 0 0 1 -0.70408,-0.70406 0.7040784,0.7040784 0 0 1 0.70408,-0.70408 0.7040784,0.7040784 0 0 1 0.70408,0.70408 z m 22.29786,-15.02878 a 0.7040784,0.7040784 0 0 1 -0.70408,0.70406 0.7040784,0.7040784 0 0 1 -0.70408,-0.70406 0.7040784,0.7040784 0 0 1 0.70408,-0.70408 0.7040784,0.7040784 0 0 1 0.70408,0.70408 z M 148.78783,-7.34363 a 0.7040784,0.7040784 0 0 1 -0.70408,0.70409 0.7040784,0.7040784 0 0 1 -0.70408,-0.70409 0.7040784,0.7040784 0 0 1 0.70408,-0.70406 0.7040784,0.7040784 0 0 1 0.70408,0.70406 z M 120.0955,18.7366 a 1.8266837,1.8266837 0 0 1 -1.82669,1.82669 1.8266837,1.8266837 0 0 1 -1.82668,-1.82669 1.8266837,1.8266837 0 0 1 1.82668,-1.82669 1.8266837,1.8266837 0 0 1 1.82669,1.82669 z m -9.63807,-64.98219 a 1.8266837,1.8266837 0 0 1 -1.82669,1.82668 1.8266837,1.8266837 0 0 1 -1.82668,-1.82668 1.8266837,1.8266837 0 0 1 1.82668,-1.82668 1.8266837,1.8266837 0 0 1 1.82669,1.82668 z m -3.89492,42.92867 a 0.7040784,0.7040784 0 0 1 -0.70407,0.70408 0.7040784,0.7040784 0 0 1 -0.70408,-0.70408 0.7040784,0.7040784 0 0 1 0.70408,-0.70408 0.7040784,0.7040784 0 0 1 0.70407,0.70408 z m 10.72144,6.38693 a 0.7040784,0.7040784 0 0 1 -0.70408,0.70409 0.7040784,0.7040784 0 0 1 -0.70408,-0.70409 0.7040784,0.7040784 0 0 1 0.70408,-0.70408 0.7040784,0.7040784 0 0 1 0.70408,0.70408 z m 53.17671,-22.51981 a 0.7040784,0.7040784 0 0 1 -0.70408,0.70408 0.7040784,0.7040784 0 0 1 -0.70407,-0.70408 0.7040784,0.7040784 0 0 1 0.70407,-0.70407 0.7040784,0.7040784 0 0 1 0.70408,0.70407 z m -10.2004,-22.30779 a 3.267043,3.267043 0 0 1 -3.26705,3.26705 3.267043,3.267043 0 0 1 -3.26704,-3.26705 3.267043,3.267043 0 0 1 3.26704,-3.26704 3.267043,3.267043 0 0 1 3.26705,3.26704 z M 135.23875,9.872 a 0.7040784,0.7040784 0 0 1 -0.70407,0.70408 0.7040784,0.7040784 0 0 1 -0.70408,-0.70408 0.7040784,0.7040784 0 0 1 0.70408,-0.70409 0.7040784,0.7040784 0 0 1 0.70407,0.70409 z m 0.65878,-43.69681 a 0.7040784,0.7040784 0 0 1 -0.70408,0.70409 0.7040784,0.7040784 0 0 1 -0.70408,-0.70409 0.7040784,0.7040784 0 0 1 0.70408,-0.70408 0.7040784,0.7040784 0 0 1 0.70408,0.70408 z m -11.07405,27.41037 a 0.7040784,0.7040784 0 0 1 -0.70407,0.70409 0.7040784,0.7040784 0 0 1 -0.70408,-0.70409 0.7040784,0.7040784 0 0 1 0.70408,-0.70408 0.7040784,0.7040784 0 0 1 0.70407,0.70408 z m 3.10754,-12.10173 a 1.8266837,1.8266837 0 0 1 -1.82669,1.82668 1.8266837,1.8266837 0 0 1 -1.82668,-1.82668 1.8266837,1.8266837 0 0 1 1.82668,-1.82669 1.8266837,1.8266837 0 0 1 1.82669,1.82669 z M 72.851517,-29.08036 a 1.8266837,1.8266837 0 0 1 -1.826686,1.82669 1.8266837,1.8266837 0 0 1 -1.826683,-1.82669 1.8266837,1.8266837 0 0 1 1.826683,-1.82669 1.8266837,1.8266837 0 0 1 1.826686,1.82669 z M 99.067247,7.9868 a 0.7040784,0.7040784 0 0 1 -0.70408,0.70406 0.7040784,0.7040784 0 0 1 -0.70408,-0.70406 0.7040784,0.7040784 0 0 1 0.70408,-0.70409 0.7040784,0.7040784 0 0 1 0.70408,0.70409 z M 117.28395,3.07001 a 0.7040784,0.7040784 0 0 1 -0.70408,0.70409 0.7040784,0.7040784 0 0 1 -0.70408,-0.70409 0.7040784,0.7040784 0 0 1 0.70408,-0.70408 0.7040784,0.7040784 0 0 1 0.70408,0.70408 z M 88.651977,-8.29962 a 0.7040784,0.7040784 0 0 1 -0.70407,0.70408 0.7040784,0.7040784 0 0 1 -0.70408,-0.70408 0.7040784,0.7040784 0 0 1 0.70408,-0.70408 0.7040784,0.7040784 0 0 1 0.70407,0.70408 z m 3.5362,22.81915 a 3.267043,3.267043 0 0 1 -3.26704,3.26702 3.267043,3.267043 0 0 1 -3.26704,-3.26702 3.267043,3.267043 0 0 1 3.26704,-3.26705 3.267043,3.267043 0 0 1 3.26704,3.26705 z m 8.573653,-31.71594 -0.886671,-6.61452 -5.415232,-3.12349 6.614503,-0.88667 3.12352,-5.41523 0.88666,6.6145 5.41523,3.12352 -6.6145,0.88665 z M 152.89968,19.04934 154.33669,4.87777 139.64206,-1.437 153.81363,0 160.1284,-14.69461 158.69139,-0.52304 173.38602,5.79172 159.21444,4.3547 Z" />
    <path
       d="M 133.94976,201.00182 H 79.219271 v -10.79944 h 22.398839 v -63.59669 l -20.865586,11.33274 -4.266445,-9.86615 27.731891,-14.59924 h 10.26613 v 76.72933 h 19.46566 z"
       id="text21"
       style="font-size:192px;line-height:1.25;font-family:Consolas;-inkscape-font-specification:Consolas;white-space:pre;display:inline;fill:#000000;stroke:#ffffff;stroke-width:3.0528"
       aria-label="1" />
  </g>
</svg>
